<svg width="70" height="70" viewBox="0 0 70 70" fill="none" xmlns="http://www.w3.org/2000/svg">
<path d="M59.0625 13.125H10.9375C7.31314 13.125 4.375 16.0631 4.375 19.6875V50.3125C4.375 53.937 7.31314 56.875 10.9375 56.875H59.0625C62.687 56.875 65.625 53.937 65.625 50.3125V19.6875C65.625 16.0631 62.687 13.125 59.0625 13.125Z" fill="#388E3C"/>
<path d="M35 13.125V56.875H10.9375C9.19702 56.875 7.52782 56.1835 6.29711 54.9528C5.0664 53.7222 4.375 52.0529 4.375 50.3125V19.6875C4.375 17.947 5.0664 16.2778 6.29711 15.0471C7.52782 13.8164 9.19702 13.125 10.9375 13.125H35Z" fill="#66BB6A"/>
<path d="M26.25 13.125V43.75C26.25 44.3301 26.0194 44.8866 25.6093 45.2968C25.1991 45.7069 24.6426 45.9375 24.0625 45.9375C23.4824 45.9375 22.9259 45.7069 22.5157 45.2968C22.1056 44.8866 21.875 44.3301 21.875 43.75V13.125H26.25Z" fill="#F5F5F5"/>
<path d="M54.6875 28.4375H43.75C43.1699 28.4375 42.6134 28.2069 42.2032 27.7968C41.7931 27.3866 41.5625 26.8301 41.5625 26.25C41.5625 25.6699 41.7931 25.1134 42.2032 24.7032C42.6134 24.2931 43.1699 24.0625 43.75 24.0625H54.6875C55.2676 24.0625 55.8241 24.2931 56.2343 24.7032C56.6444 25.1134 56.875 25.6699 56.875 26.25C56.875 26.8301 56.6444 27.3866 56.2343 27.7968C55.8241 28.2069 55.2676 28.4375 54.6875 28.4375Z" fill="#E0E0E0"/>
<path d="M54.6875 37.1875H48.125C47.5449 37.1875 46.9884 36.9569 46.5782 36.5468C46.1681 36.1366 45.9375 35.5801 45.9375 35C45.9375 34.4199 46.1681 33.8634 46.5782 33.4532C46.9884 33.0431 47.5449 32.8125 48.125 32.8125H54.6875C55.2676 32.8125 55.8241 33.0431 56.2343 33.4532C56.6444 33.8634 56.875 34.4199 56.875 35C56.875 35.5801 56.6444 36.1366 56.2343 36.5468C55.8241 36.9569 55.2676 37.1875 54.6875 37.1875Z" fill="#E0E0E0"/>
<path d="M54.6875 45.9375H43.75C43.1699 45.9375 42.6134 45.7069 42.2032 45.2968C41.7931 44.8866 41.5625 44.3301 41.5625 43.75C41.5625 43.1699 41.7931 42.6134 42.2032 42.2032C42.6134 41.7931 43.1699 41.5625 43.75 41.5625H54.6875C55.2676 41.5625 55.8241 41.7931 56.2343 42.2032C56.6444 42.6134 56.875 43.1699 56.875 43.75C56.875 44.3301 56.6444 44.8866 56.2343 45.2968C55.8241 45.7069 55.2676 45.9375 54.6875 45.9375Z" fill="#E0E0E0"/>
</svg>
