<svg width="101" height="100" viewBox="0 0 101 100" fill="none" xmlns="http://www.w3.org/2000/svg">
<rect x="0.597656" width="100" height="100" rx="10" fill="#EFEFF0"/>
<mask id="mask0_178_4432" style="mask-type:luminance" maskUnits="userSpaceOnUse" x="40" y="40" width="21" height="20">
<path fill-rule="evenodd" clip-rule="evenodd" d="M40.5977 40H60.5573V59.9498H40.5977V40Z" fill="white"/>
</mask>
<g mask="url(#mask0_178_4432)">
<path fill-rule="evenodd" clip-rule="evenodd" d="M46.2477 41.5C43.7267 41.5 42.0977 43.227 42.0977 45.899V54.051C42.0977 56.724 43.7267 58.45 46.2477 58.45H54.8977C57.4247 58.45 59.0577 56.724 59.0577 54.051V45.899C59.0577 43.227 57.4247 41.5 54.8977 41.5H46.2477ZM54.8977 59.95H46.2477C42.8677 59.95 40.5977 57.579 40.5977 54.051V45.899C40.5977 42.371 42.8677 40 46.2477 40H54.8977C58.2827 40 60.5577 42.371 60.5577 45.899V54.051C60.5577 57.579 58.2827 59.95 54.8977 59.95Z" fill="#61646B"/>
</g>
<path fill-rule="evenodd" clip-rule="evenodd" d="M43.8789 55.1804C43.6929 55.1804 43.5079 55.1124 43.3629 54.9744C43.0619 54.6904 43.0499 54.2144 43.3349 53.9154L44.8629 52.3024C45.6719 51.4434 47.0369 51.4014 47.8999 52.2114L48.8579 53.1834C49.1249 53.4534 49.5589 53.4584 49.8269 53.1944C49.9279 53.0754 52.1059 50.4304 52.1059 50.4304C52.5199 49.9284 53.1039 49.6184 53.7529 49.5544C54.4029 49.4974 55.0339 49.6864 55.5369 50.0994C55.5799 50.1344 55.6189 50.1684 57.8149 52.4234C58.1039 52.7194 58.0989 53.1944 57.8019 53.4834C57.5059 53.7744 57.0299 53.7654 56.7409 53.4694C56.7409 53.4694 54.6919 51.3664 54.5459 51.2244C54.3909 51.0974 54.1419 51.0234 53.8969 51.0474C53.6479 51.0724 53.4239 51.1914 53.2649 51.3844C50.9409 54.2034 50.9129 54.2304 50.8749 54.2674C50.0169 55.1094 48.6319 55.0954 47.7889 54.2354C47.7889 54.2354 46.8589 53.2914 46.8429 53.2724C46.6119 53.0584 46.1999 53.0724 45.9529 53.3334L44.4229 54.9464C44.2749 55.1024 44.0769 55.1804 43.8789 55.1804Z" fill="#61646B"/>
<path fill-rule="evenodd" clip-rule="evenodd" d="M47.1553 46.1289C46.6023 46.1289 46.1523 46.5789 46.1523 47.1329C46.1523 47.6869 46.6023 48.1379 47.1563 48.1379C47.7103 48.1379 48.1613 47.6869 48.1613 47.1329C48.1613 46.5799 47.7103 46.1299 47.1553 46.1289ZM47.1563 49.6379C45.7753 49.6379 44.6523 48.5139 44.6523 47.1329C44.6523 45.7519 45.7753 44.6289 47.1563 44.6289C48.5383 44.6299 49.6613 45.7539 49.6613 47.1329C49.6613 48.5139 48.5373 49.6379 47.1563 49.6379Z" fill="#61646B"/>
</svg>
