<svg width="50" height="50" viewBox="0 0 50 50" fill="none" xmlns="http://www.w3.org/2000/svg">
<path fill-rule="evenodd" clip-rule="evenodd" d="M19.8613 17.2311L11.6568 26.0856L19.7428 34.7557C19.7911 34.8076 19.8413 34.8571 19.891 34.9069C19.9268 34.8702 19.9634 34.8347 19.9984 34.7969L28.0945 26.059L19.8613 17.2311ZM15.1941 14.8059C13.6563 14.7523 12.0979 15.288 10.8785 16.4252C8.43966 18.6998 8.30728 22.4942 10.5818 24.9331L11.6568 26.0856L19.8613 17.2311L19.3863 16.7217C18.249 15.5023 16.7319 14.8595 15.1941 14.8059ZM19.8613 17.2311L28.0945 26.059L29.1273 24.9444C31.3939 22.4982 31.2493 18.7041 28.8031 16.4375C26.3569 14.1709 22.5627 14.3155 20.2961 16.7618L19.8613 17.2311Z" fill="#0BE5AD"/>
<path fill-rule="evenodd" clip-rule="evenodd" d="M25.4381 10.9898L23.8488 12.6045L25.4152 14.1856C25.4245 14.195 25.4343 14.2041 25.4439 14.2132C25.4508 14.2065 25.4579 14.2 25.4647 14.1931L27.0331 12.5997L25.4381 10.9898ZM24.534 10.5475C24.2361 10.5378 23.9342 10.6355 23.698 10.8428C23.2256 11.2576 23.1999 11.9496 23.6405 12.3943L23.8488 12.6045L25.4381 10.9898L25.3461 10.8969C25.1258 10.6745 24.8319 10.5573 24.534 10.5475ZM25.4381 10.9898L27.0331 12.5997L27.2331 12.3964C27.6722 11.9503 27.6442 11.2584 27.1703 10.8451C26.6965 10.4318 25.9614 10.4581 25.5224 10.9042L25.4381 10.9898Z" fill="#0BE5AD"/>
<path fill-rule="evenodd" clip-rule="evenodd" d="M30.7558 17.1837L22.5514 26.0382L30.6373 34.7083C30.6857 34.7602 30.7358 34.8097 30.7855 34.8595C30.8213 34.8228 30.8579 34.7874 30.893 34.7496L38.989 26.0117L30.7558 17.1837ZM26.0887 14.7585C24.5509 14.7049 22.9925 15.2406 21.773 16.3779C19.3342 18.6524 19.2018 22.4468 21.4764 24.8857L22.5514 26.0382L30.7558 17.1837L30.2808 16.6744C29.1436 15.4549 27.6265 14.8121 26.0887 14.7585ZM30.7558 17.1837L38.989 26.0117L40.0219 24.897C42.2885 22.4508 42.1439 18.6568 39.6976 16.3902C37.2514 14.1236 33.4572 14.2682 31.1906 16.7144L30.7558 17.1837Z" fill="#D0FE35"/>
<path fill-rule="evenodd" clip-rule="evenodd" d="M16.3332 31.3486C16.6309 31.3486 16.8995 31.4662 17.0973 31.6568H22.5412C22.9217 31.6568 23.2515 31.883 23.4246 32.2186C23.6909 32.0254 24.0142 31.9211 24.3465 31.9211C24.7552 31.9211 25.1471 32.0788 25.4361 32.3595C25.7251 32.6402 25.8875 33.021 25.8875 33.418C25.8875 33.6146 25.8477 33.8092 25.7702 33.9909C25.6928 34.1725 25.5793 34.3375 25.4362 34.4766C25.2931 34.6156 25.1232 34.7258 24.9362 34.8011C24.7493 34.8763 24.5489 34.915 24.3465 34.915C23.9825 34.9146 23.6304 34.789 23.3525 34.5605C23.1682 34.829 22.8745 35.0031 22.5412 35.0031H17.4338V38.0852C17.4338 38.695 16.943 39.1857 16.3332 39.1857C15.7234 39.1857 15.2324 38.695 15.2324 38.0852V32.4494C15.2324 31.8396 15.7234 31.3486 16.3332 31.3486ZM19.7234 35.7074C20.2845 35.7074 20.7359 36.1984 20.7359 36.8082V38.2611C20.7359 38.8709 20.2845 39.3619 19.7234 39.3619C19.1624 39.3619 18.7107 38.8709 18.7107 38.2611V36.8082C18.7107 36.1984 19.1624 35.7074 19.7234 35.7074Z" fill="#0BE5AD"/>
<path fill-rule="evenodd" clip-rule="evenodd" d="M34.3414 31.2163C34.0437 31.2163 33.7751 31.3338 33.5773 31.5245H28.1334C27.7529 31.5245 27.4231 31.7507 27.25 32.0862C26.9838 31.8931 26.6604 31.7888 26.3281 31.7888C25.9194 31.7888 25.5275 31.9465 25.2385 32.2272C24.9495 32.5079 24.7871 32.8886 24.7871 33.2856C24.7871 33.4822 24.827 33.6769 24.9044 33.8585C24.9818 34.0402 25.0953 34.2052 25.2384 34.3442C25.3815 34.4832 25.5514 34.5935 25.7384 34.6688C25.9254 34.744 26.1257 34.7827 26.3281 34.7827C26.6921 34.7823 27.0443 34.6567 27.3221 34.4282C27.5064 34.6967 27.8001 34.8708 28.1334 34.8708H33.2408V37.9528C33.2408 38.5626 33.7316 39.0534 34.3414 39.0534C34.9512 39.0534 35.4422 38.5626 35.4422 37.9528V32.3171C35.4422 31.7073 34.9512 31.2163 34.3414 31.2163ZM30.9512 35.5751C30.3902 35.5751 29.9387 36.0661 29.9387 36.6759V38.1288C29.9387 38.7386 30.3902 39.2296 30.9512 39.2296C31.5122 39.2296 31.9639 38.7386 31.9639 38.1288V36.6759C31.9639 36.0661 31.5122 35.5751 30.9512 35.5751Z" fill="#D0FE35"/>
<path fill-rule="evenodd" clip-rule="evenodd" d="M15.192 24.5093C14.7728 24.4848 14.4919 24.4503 14.1204 24.3775C13.5346 24.2628 12.9438 24.0728 12.352 23.8091C12.1868 23.7354 12.1794 23.73 12.0738 23.6042C11.9531 23.4604 11.8736 23.3259 11.8238 23.1811C11.8013 23.1155 11.7992 23.1011 11.7989 23.0083C11.7986 22.9199 11.8008 22.9015 11.8166 22.8621C11.8551 22.7666 11.9545 22.6899 12.0864 22.654C12.249 22.6097 12.6134 22.6357 12.7947 22.7045C12.9622 22.768 13.3352 22.8686 13.6023 22.9223C14.5235 23.1073 15.4072 23.1304 16.1182 22.9879C16.4655 22.9183 16.643 22.8618 17.2973 22.6129C17.8657 22.3966 17.8809 22.3911 17.992 22.3628C18.1302 22.3275 18.2246 22.3167 18.3542 22.3213C18.4829 22.3259 18.5625 22.3444 18.6642 22.3935C18.8867 22.501 19.0284 22.7197 19.0578 23.0011C19.0773 23.1882 19.0314 23.3798 18.9381 23.5006C18.9027 23.5465 18.8363 23.5981 18.7951 23.6117C18.7807 23.6165 18.7171 23.6501 18.6539 23.6865C18.4981 23.7761 18.1728 23.9374 18.0017 24.0099C17.3113 24.3023 16.6222 24.4616 15.8535 24.5065C15.7358 24.5134 15.2939 24.5153 15.192 24.5093Z" fill="white"/>
<path fill-rule="evenodd" clip-rule="evenodd" d="M25.2427 24.106C24.8236 24.0815 24.5427 24.047 24.1712 23.9742C23.5854 23.8594 22.9946 23.6695 22.4028 23.4058C22.2376 23.3321 22.2302 23.3267 22.1246 23.2009C22.0039 23.0571 21.9244 22.9226 21.8746 22.7778C21.852 22.7121 21.85 22.6978 21.8496 22.605C21.8493 22.5166 21.8516 22.4981 21.8674 22.4588C21.9059 22.3632 22.0053 22.2866 22.1372 22.2507C22.2998 22.2064 22.6642 22.2324 22.8455 22.3012C23.013 22.3647 23.386 22.4653 23.6531 22.519C24.5743 22.704 25.4579 22.7271 26.169 22.5846C26.5163 22.515 26.6938 22.4585 27.3481 22.2095C27.9164 21.9933 27.9317 21.9878 28.0427 21.9595C28.181 21.9242 28.2753 21.9134 28.4049 21.918C28.5337 21.9226 28.6133 21.9411 28.715 21.9902C28.9375 22.0976 29.0792 22.3164 29.1085 22.5978C29.128 22.7849 29.0821 22.9764 28.9889 23.0973C28.9535 23.1432 28.8871 23.1948 28.8459 23.2084C28.8315 23.2131 28.7679 23.2468 28.7046 23.2832C28.5489 23.3728 28.2236 23.5341 28.0525 23.6066C27.3621 23.8989 26.673 24.0582 25.9043 24.1032C25.7866 24.1101 25.3446 24.1119 25.2427 24.106Z" fill="white"/>
<path fill-rule="evenodd" clip-rule="evenodd" d="M35.9464 24.1353C36.3655 24.1108 36.6464 24.0763 37.018 24.0035C37.6037 23.8887 38.1946 23.6988 38.7863 23.4351C38.9516 23.3614 38.959 23.356 39.0645 23.2302C39.1853 23.0864 39.2647 22.9519 39.3145 22.8071C39.3371 22.7414 39.3392 22.7271 39.3395 22.6343C39.3398 22.5459 39.3376 22.5274 39.3217 22.4881C39.2832 22.3925 39.1838 22.3159 39.0519 22.28C38.8893 22.2357 38.525 22.2617 38.3437 22.3305C38.1762 22.394 37.8031 22.4946 37.5361 22.5483C36.6148 22.7333 35.7312 22.7564 35.0202 22.6139C34.6729 22.5443 34.4953 22.4878 33.841 22.2388C33.2727 22.0226 33.2574 22.0171 33.1464 21.9888C33.0081 21.9535 32.9138 21.9427 32.7842 21.9473C32.6554 21.9519 32.5758 21.9704 32.4742 22.0195C32.2516 22.1269 32.1099 22.3457 32.0806 22.6271C32.0611 22.8142 32.107 23.0057 32.2003 23.1266C32.2356 23.1725 32.3021 23.2241 32.3432 23.2377C32.3577 23.2424 32.4212 23.2761 32.4845 23.3125C32.6403 23.4021 32.9656 23.5634 33.1366 23.6359C33.827 23.9282 34.5161 24.0875 35.2848 24.1325C35.4025 24.1394 35.8445 24.1412 35.9464 24.1353Z" fill="white"/>
</svg>
