<svg width="95" height="95" viewBox="0 0 95 95" fill="none" xmlns="http://www.w3.org/2000/svg">
<path d="M82.4922 18.2478C80.4705 16.2251 78.07 14.6206 75.428 13.5259C72.786 12.4311 69.9542 11.8677 67.0943 11.8677C64.2345 11.8677 61.4026 12.4311 58.7606 13.5259C56.1186 14.6206 53.7181 16.2251 51.6964 18.2478L47.5006 22.4437L43.3047 18.2478C39.2209 14.164 33.6821 11.8698 27.9068 11.8698C22.1315 11.8698 16.5927 14.164 12.5089 18.2478C8.4251 22.3316 6.13086 27.8704 6.13086 33.6457C6.13086 39.4211 8.4251 44.9599 12.5089 49.0437L47.5006 84.0353L82.4922 49.0437C84.5149 47.0219 86.1194 44.6215 87.2142 41.9794C88.3089 39.3374 88.8724 36.5056 88.8724 33.6457C88.8724 30.7859 88.3089 27.9541 87.2142 25.312C86.1194 22.67 84.5149 20.2696 82.4922 18.2478Z" stroke="black" stroke-width="4" stroke-linecap="round" stroke-linejoin="round"/>
<path d="M19.9316 39.7563C19.9715 40.1153 20.4465 40.7481 20.7058 40.9912C21.6619 41.8875 23.1529 42.4155 24.3769 42.7674C25.3269 43.0405 26.1707 43.2951 27.16 43.3658C28.0396 43.4286 28.918 43.5178 29.8006 43.5178C30.7752 43.5178 31.9164 43.5542 32.8354 43.1758C34.1881 42.6188 35.5615 42.3209 36.8533 41.5943C37.099 41.4561 37.5071 41.2227 37.7129 41.0386C37.925 40.8488 38.0822 40.593 38.3113 40.4402" stroke="black" stroke-width="3" stroke-linecap="round"/>
<path d="M57 40C57.0399 40.359 57.5149 40.9918 57.7741 41.2348C58.7303 42.1312 60.2212 42.6591 61.4453 43.011C62.3952 43.2841 63.2391 43.5388 64.2284 43.6094C65.108 43.6723 65.9864 43.7614 66.869 43.7614C67.8435 43.7614 68.9847 43.7979 69.9037 43.4195C71.2565 42.8625 72.6299 42.5646 73.9216 41.838C74.1674 41.6997 74.5755 41.4664 74.7812 41.2823C74.9934 41.0925 75.1505 40.8366 75.3796 40.6839" stroke="black" stroke-width="3" stroke-linecap="round"/>
</svg>
