<svg width="24" height="24" viewBox="0 0 24 24" fill="none" xmlns="http://www.w3.org/2000/svg">
<path d="M18 4H6C4.89543 4 4 4.89543 4 6V18C4 18.1121 4.00922 18.222 4.02693 18.329C4.18385 19.277 5.0075 20 6 20H18C19.1046 20 20 19.1046 20 18V14.1901V6C20 4.89543 19.1046 4 18 4Z" stroke="black" stroke-width="1.5" stroke-linecap="round" stroke-linejoin="round"/>
<path d="M11 9C11 10.1046 10.1046 11 9 11C7.89543 11 7 10.1046 7 9C7 7.89543 7.89543 7 9 7C10.1046 7 11 7.89543 11 9Z" stroke="black" stroke-width="1.5" stroke-linecap="round" stroke-linejoin="round"/>
<path d="M4.02734 18.3291L7.84804 14.5084C8.52807 13.9134 9.52261 13.8483 10.2744 14.3495L10.7836 14.6889C11.5082 15.172 12.4623 15.1306 13.1424 14.5866L15.7905 12.468C16.4655 11.928 17.4057 11.8857 18.1232 12.3485C18.2027 12.3998 18.2735 12.4633 18.3404 12.5303L20.0004 14.1902" stroke="black" stroke-width="1.5" stroke-linecap="round" stroke-linejoin="round"/>
</svg>
