<svg width="17" height="18" viewBox="0 0 17 18" fill="none" xmlns="http://www.w3.org/2000/svg">
<path d="M14.3793 3.70665C14.1974 3.5176 13.9814 3.36764 13.7438 3.26532C13.5061 3.16301 13.2514 3.11035 12.9941 3.11035C12.7369 3.11035 12.4821 3.16301 12.2445 3.26532C12.0068 3.36764 11.7908 3.5176 11.609 3.70665L4.04097 11.5722C3.85596 11.7646 3.71652 11.9991 3.63366 12.2571L2.69828 15.1743C2.66815 15.2679 2.66371 15.3685 2.68546 15.4646C2.70722 15.5608 2.75431 15.6487 2.82146 15.7186C2.88861 15.7885 2.97317 15.8376 3.06565 15.8603C3.15813 15.8831 3.25489 15.8786 3.34507 15.8475L6.15223 14.8744C6.40092 14.7893 6.62606 14.6436 6.8113 14.4511L12.9056 8.11801L13.1747 8.39665C13.3185 8.5462 13.3992 8.74893 13.3992 8.9603C13.3992 9.17167 13.3185 9.37439 13.1747 9.52395L12.0316 10.7119C11.9841 10.7613 11.9464 10.82 11.9208 10.8846C11.8951 10.9491 11.8819 11.0183 11.8819 11.0882C11.882 11.1581 11.8953 11.2272 11.921 11.2918C11.9468 11.3563 11.9846 11.4149 12.0321 11.4643C12.0797 11.5137 12.1362 11.5528 12.1983 11.5795C12.2604 11.6062 12.327 11.6199 12.3943 11.6199C12.4615 11.6198 12.5281 11.606 12.5902 11.5792C12.6523 11.5524 12.7087 11.5132 12.7562 11.4638L13.8983 10.2769C14.0646 10.1041 14.1965 9.8989 14.2866 9.67309C14.3766 9.44728 14.4229 9.20525 14.4229 8.96083C14.4229 8.71641 14.3766 8.47438 14.2866 8.24857C14.1965 8.02276 14.0646 7.81758 13.8983 7.64476L13.6291 7.36506L14.3793 6.58552C14.5612 6.3965 14.7055 6.17209 14.804 5.92511C14.9024 5.67813 14.9531 5.41342 14.9531 5.14608C14.9531 4.87875 14.9024 4.61403 14.804 4.36705C14.7055 4.12007 14.5612 3.89567 14.3793 3.70665ZM12.5597 6.97369L12.529 7.0056L6.08776 13.6982C6.01505 13.7739 5.92642 13.831 5.82884 13.8651L3.99288 14.5011L4.60486 12.5932C4.63723 12.4915 4.69188 12.399 4.76451 12.3231L12.3325 4.4596C12.4194 4.36931 12.5225 4.29769 12.6361 4.24882C12.7496 4.19996 12.8712 4.17481 12.9941 4.17481C13.117 4.17481 13.2387 4.19996 13.3522 4.24882C13.4657 4.29769 13.5689 4.36931 13.6557 4.4596C13.7426 4.54989 13.8115 4.65708 13.8586 4.77505C13.9056 4.89302 13.9298 5.01946 13.9298 5.14715C13.9298 5.27484 13.9056 5.40127 13.8586 5.51924C13.8115 5.63721 13.7426 5.7444 13.6557 5.83469L12.5597 6.97369Z" fill="black"/>
</svg>
